PathFileType	4	(X/Y/Z)	C:\Users\italobelli\Desktop\GitHub\PTbot_officialCBL\Personal_Results\SHRUG02_noisy1.trc
DataRate	CameraRate	NumFrames	NumMarkers	Units	OrigDataRate	OrigDataStartFrame	OrigNumFrames
112.250000	112.250000	29	9	m	112.250000	113	450
Frame#	Time		gu		centelbow		EpL		centpxt8		centijc7		ij		ts		aa		ai
			X1	Y1	Z1	X2	Y2	Z2	X3	Y3	Z3	X4	Y4	Z4	X5	Y5	Z5	X6	Y6	Z6	X7	Y7	Z7	X8	Y8	Z8	X9	Y9	Z9

113	0.99777	-0.079668	0.00045208	0.166	-0.12096	-0.24424	0.20582	-0.1	-0.23907	0.22976	-0.046816	-0.15316	-0.008669	-0.046816	0.031938	-0.008669	0	0	0	-0.13153	0.049337	0.055174	-0.10107	0.047815	0.17046	-0.15654	-0.060905	0.065768
114	1.0067	-0.079668	0.00083882	0.166	-0.12094	-0.24394	0.20596	-0.099982	-0.23876	0.22992	-0.046816	-0.15316	-0.008669	-0.046816	0.031938	-0.008669	0	0	0	-0.1315	0.04954	0.055122	-0.10098	0.048347	0.17044	-0.15645	-0.060601	0.065827
115	1.0156	-0.079648	0.0012756	0.16598	-0.12089	-0.24358	0.20613	-0.099926	-0.23839	0.23009	-0.046816	-0.15316	-0.008669	-0.046816	0.031938	-0.008669	0	0	0	-0.13147	0.04974	0.055055	-0.10088	0.048903	0.17038	-0.15636	-0.060298	0.065911
116	1.0245	-0.079608	0.0017621	0.16594	-0.1208	-0.24315	0.20632	-0.099834	-0.23794	0.23029	-0.046816	-0.15316	-0.008669	-0.046816	0.031938	-0.008669	0	0	0	-0.13145	0.049938	0.054972	-0.10077	0.049483	0.1703	-0.15626	-0.059995	0.06602
117	1.0334	-0.079549	0.0022966	0.1659	-0.12069	-0.24266	0.20655	-0.099708	-0.23743	0.23051	-0.046816	-0.15316	-0.008669	-0.046816	0.031938	-0.008669	0	0	0	-0.13143	0.050133	0.054874	-0.10066	0.050085	0.17019	-0.15616	-0.059693	0.066154
118	1.0423	-0.079471	0.0028772	0.16583	-0.12054	-0.24211	0.20679	-0.099549	-0.23685	0.23075	-0.046816	-0.15316	-0.008669	-0.046816	0.031938	-0.008669	0	0	0	-0.13141	0.050326	0.054761	-0.10055	0.050708	0.17005	-0.15605	-0.059392	0.066312
119	1.0512	-0.079375	0.0035022	0.16576	-0.12036	-0.2415	0.20707	-0.099359	-0.23621	0.23101	-0.046816	-0.15316	-0.008669	-0.046816	0.031938	-0.008669	0	0	0	-0.13139	0.050516	0.054633	-0.10043	0.051353	0.16989	-0.15594	-0.059092	0.066492
120	1.0601	-0.079261	0.0041697	0.16567	-0.12015	-0.24084	0.20737	-0.099137	-0.23551	0.23129	-0.046816	-0.15316	-0.008669	-0.046816	0.031938	-0.008669	0	0	0	-0.13137	0.050705	0.054492	-0.10032	0.052017	0.1697	-0.15582	-0.058792	0.066694
121	1.069	-0.079131	0.0048779	0.16556	-0.11992	-0.24012	0.20769	-0.098887	-0.23475	0.23159	-0.046816	-0.15316	-0.008669	-0.046816	0.031938	-0.008669	0	0	0	-0.13136	0.05089	0.054338	-0.10019	0.0527	0.16948	-0.15569	-0.058494	0.066917
122	1.078	-0.078985	0.005625	0.16545	-0.11966	-0.23935	0.20803	-0.098608	-0.23394	0.23191	-0.046816	-0.15316	-0.008669	-0.046816	0.031938	-0.008669	0	0	0	-0.13135	0.051074	0.054172	-0.10007	0.053401	0.16925	-0.15556	-0.058197	0.06716
123	1.0869	-0.078824	0.0064092	0.16533	-0.11937	-0.23853	0.20839	-0.098301	-0.23308	0.23225	-0.046816	-0.15316	-0.008669	-0.046816	0.031938	-0.008669	0	0	0	-0.13134	0.051255	0.053993	-0.099942	0.054118	0.16899	-0.15543	-0.057901	0.067422
124	1.0958	-0.078648	0.0072286	0.16519	-0.11906	-0.23767	0.20878	-0.097969	-0.23216	0.2326	-0.046816	-0.15316	-0.008669	-0.046816	0.031938	-0.008669	0	0	0	-0.13133	0.051434	0.053803	-0.099812	0.054852	0.16872	-0.15529	-0.057607	0.067703
125	1.1047	-0.078458	0.0080815	0.16504	-0.11873	-0.23676	0.20918	-0.097613	-0.2312	0.23297	-0.046816	-0.15316	-0.008669	-0.046816	0.031938	-0.008669	0	0	0	-0.13132	0.05161	0.053602	-0.099679	0.055601	0.16842	-0.15515	-0.057314	0.068001
126	1.1136	-0.078255	0.008966	0.16489	-0.11837	-0.23581	0.2096	-0.097232	-0.2302	0.23336	-0.046816	-0.15316	-0.008669	-0.046816	0.031938	-0.008669	0	0	0	-0.13131	0.051784	0.053391	-0.099544	0.056364	0.1681	-0.155	-0.057022	0.068315
127	1.1225	-0.078039	0.0098804	0.16472	-0.118	-0.23481	0.21004	-0.09683	-0.22915	0.23375	-0.046816	-0.15316	-0.008669	-0.046816	0.031938	-0.008669	0	0	0	-0.13131	0.051956	0.05317	-0.099407	0.057141	0.16777	-0.15485	-0.056731	0.068645
128	1.1314	-0.077812	0.010823	0.16455	-0.1176	-0.23378	0.21049	-0.096406	-0.22806	0.23417	-0.046816	-0.15316	-0.008669	-0.046816	0.031938	-0.008669	0	0	0	-0.1313	0.052126	0.05294	-0.099268	0.057929	0.16742	-0.1547	-0.056442	0.06899
129	1.1403	-0.077573	0.011791	0.16437	-0.11719	-0.23272	0.21096	-0.095963	-0.22693	0.23459	-0.046816	-0.15316	-0.008669	-0.046816	0.031938	-0.008669	0	0	0	-0.1313	0.052293	0.052701	-0.099127	0.058729	0.16706	-0.15455	-0.056155	0.069349
130	1.1492	-0.077323	0.012784	0.16418	-0.11676	-0.23162	0.21145	-0.0955	-0.22576	0.23503	-0.046816	-0.15316	-0.008669	-0.046816	0.031938	-0.008669	0	0	0	-0.1313	0.052458	0.052454	-0.098984	0.05954	0.16668	-0.15439	-0.055869	0.069721
131	1.1581	-0.077064	0.0138	0.16399	-0.11631	-0.23049	0.21195	-0.095021	-0.22457	0.23548	-0.046816	-0.15316	-0.008669	-0.046816	0.031938	-0.008669	0	0	0	-0.1313	0.052621	0.0522	-0.09884	0.06036	0.16628	-0.15423	-0.055585	0.070105
132	1.167	-0.076795	0.014836	0.16378	-0.11584	-0.22933	0.21246	-0.094524	-0.22334	0.23594	-0.046816	-0.15316	-0.008669	-0.046816	0.031938	-0.008669	0	0	0	-0.1313	0.052781	0.051939	-0.098694	0.061188	0.16588	-0.15406	-0.055303	0.0705
133	1.1759	-0.076518	0.015891	0.16358	-0.11537	-0.22814	0.21298	-0.094013	-0.22208	0.23641	-0.046816	-0.15316	-0.008669	-0.046816	0.031938	-0.008669	0	0	0	-0.1313	0.05294	0.051672	-0.098546	0.062024	0.16546	-0.1539	-0.055022	0.070906
134	1.1849	-0.076233	0.016964	0.16337	-0.11488	-0.22693	0.21351	-0.093487	-0.2208	0.23688	-0.046816	-0.15316	-0.008669	-0.046816	0.031938	-0.008669	0	0	0	-0.13131	0.053096	0.051399	-0.098397	0.062867	0.16503	-0.15373	-0.054743	0.071321
135	1.1938	-0.075941	0.018051	0.16315	-0.11437	-0.22569	0.21406	-0.092949	-0.21949	0.23737	-0.046816	-0.15316	-0.008669	-0.046816	0.031938	-0.008669	0	0	0	-0.13131	0.05325	0.051121	-0.098247	0.063716	0.16459	-0.15356	-0.054467	0.071745
136	1.2027	-0.075642	0.019153	0.16293	-0.11386	-0.22444	0.21461	-0.0924	-0.21816	0.23786	-0.046816	-0.15316	-0.008669	-0.046816	0.031938	-0.008669	0	0	0	-0.13131	0.053402	0.050838	-0.098096	0.06457	0.16414	-0.15339	-0.054192	0.072177
137	1.2116	-0.075337	0.020266	0.16271	-0.11334	-0.22317	0.21517	-0.091839	-0.21681	0.23836	-0.046816	-0.15316	-0.008669	-0.046816	0.031938	-0.008669	0	0	0	-0.13132	0.053551	0.050551	-0.097944	0.065427	0.16369	-0.15321	-0.053919	0.072615
138	1.2205	-0.075028	0.021388	0.16248	-0.1128	-0.22188	0.21573	-0.09127	-0.21545	0.23887	-0.046816	-0.15316	-0.008669	-0.046816	0.031938	-0.008669	0	0	0	-0.13132	0.053699	0.050261	-0.097792	0.066288	0.16323	-0.15304	-0.053649	0.07306
139	1.2294	-0.074713	0.022519	0.16225	-0.11226	-0.22058	0.21631	-0.090693	-0.21407	0.23938	-0.046816	-0.15316	-0.008669	-0.046816	0.031938	-0.008669	0	0	0	-0.13133	0.053844	0.049967	-0.097639	0.06715	0.16276	-0.15286	-0.053381	0.07351
140	1.2383	-0.074395	0.023656	0.16202	-0.11172	-0.21927	0.21689	-0.090108	-0.21268	0.23989	-0.046816	-0.15316	-0.008669	-0.046816	0.031938	-0.008669	0	0	0	-0.13134	0.053987	0.049671	-0.097485	0.068014	0.16229	-0.15269	-0.053115	0.073963
141	1.2472	-0.074074	0.024798	0.16179	-0.11117	-0.21795	0.21747	-0.089518	-0.21128	0.24041	-0.046816	-0.15316	-0.008669	-0.046816	0.031938	-0.008669	0	0	0	-0.13134	0.054128	0.049374	-0.097331	0.068878	0.16181	-0.15251	-0.052851	0.074421
